<svg xmlns="http://www.w3.org/2000/svg" viewBox="0 0 64 64" fill="none" aria-hidden="true">
  <defs>
    <linearGradient id="bnbmesh-grad" x1="8" y1="8" x2="56" y2="56" gradientUnits="userSpaceOnUse">
      <stop offset="0" stop-color="#5cebd5"/>
      <stop offset="1" stop-color="#b88bff"/>
    </linearGradient>
  </defs>
  <!-- house silhouette -->
  <path d="M32 6 L57 28 V52 a4 4 0 0 1 -4 4 H11 a4 4 0 0 1 -4 -4 V28 Z"
        stroke="url(#bnbmesh-grad)" stroke-width="3" stroke-linejoin="round" stroke-linecap="round"/>
  <!-- mesh / weave inside the house -->
  <path d="M14 36 q4.5 -3.5 9 0 t9 0 t9 0 t9 0"
        stroke="url(#bnbmesh-grad)" stroke-width="2.2" stroke-linecap="round"/>
  <path d="M14 42 q4.5 3.5 9 0 t9 0 t9 0 t9 0"
        stroke="url(#bnbmesh-grad)" stroke-width="2.2" stroke-linecap="round"/>
  <path d="M14 48 q4.5 -3.5 9 0 t9 0 t9 0 t9 0"
        stroke="url(#bnbmesh-grad)" stroke-width="2.2" stroke-linecap="round"/>
</svg>
