<?xml version="1.0" encoding="UTF-8"?>
<svg xmlns="http://www.w3.org/2000/svg" xmlns:xlink="http://www.w3.org/1999/xlink" width="18pt" height="18pt" viewBox="0 0 18 18" version="1.1">
<g id="surface1">
<path style="fill:none;stroke-width:1;stroke-linecap:round;stroke-linejoin:round;stroke:rgb(47.45098%,47.45098%,47.45098%);stroke-opacity:1;stroke-miterlimit:4;" d="M 9.215773 0.503421 L 0.403644 2.562457 L 0.403644 17.447381 L 9.215773 19.506417 Z M 9.215773 0.503421 " transform="matrix(0.861295,0,0,0.861295,0,0)"/>
<path style="fill:none;stroke-width:1;stroke-linecap:round;stroke-linejoin:round;stroke:rgb(47.45098%,47.45098%,47.45098%);stroke-opacity:1;stroke-miterlimit:4;" d="M 9.465215 2.562457 L 19.465599 2.562457 L 19.465599 17.052808 L 9.465215 17.052808 " transform="matrix(0.861295,0,0,0.861295,0,0)"/>
<path style="fill:none;stroke-width:1;stroke-linecap:round;stroke-linejoin:round;stroke:rgb(47.45098%,47.45098%,47.45098%);stroke-opacity:1;stroke-miterlimit:4;" d="M 9.360903 4.567068 L 12.35875 4.567068 L 12.35875 5.564839 L 9.360903 5.564839 Z M 9.360903 4.567068 " transform="matrix(0.861295,0,0,0.861295,0,0)"/>
<path style="fill:none;stroke-width:1;stroke-linecap:round;stroke-linejoin:round;stroke:rgb(47.45098%,47.45098%,47.45098%);stroke-opacity:1;stroke-miterlimit:4;" d="M 14.363362 4.567068 L 17.36121 4.567068 L 17.36121 5.564839 L 14.363362 5.564839 Z M 14.363362 4.567068 " transform="matrix(0.861295,0,0,0.861295,0,0)"/>
<path style="fill:none;stroke-width:1;stroke-linecap:round;stroke-linejoin:round;stroke:rgb(47.45098%,47.45098%,47.45098%);stroke-opacity:1;stroke-miterlimit:4;" d="M 9.311015 7.564916 L 12.313397 7.564916 L 12.313397 8.562687 L 9.311015 8.562687 Z M 9.311015 7.564916 " transform="matrix(0.861295,0,0,0.861295,0,0)"/>
<path style="fill:none;stroke-width:1;stroke-linecap:round;stroke-linejoin:round;stroke:rgb(47.45098%,47.45098%,47.45098%);stroke-opacity:1;stroke-miterlimit:4;" d="M 14.363362 7.564916 L 17.36121 7.564916 L 17.36121 8.562687 L 14.363362 8.562687 Z M 14.363362 7.564916 " transform="matrix(0.861295,0,0,0.861295,0,0)"/>
<path style="fill:none;stroke-width:1;stroke-linecap:round;stroke-linejoin:round;stroke:rgb(47.45098%,47.45098%,47.45098%);stroke-opacity:1;stroke-miterlimit:4;" d="M 9.360903 10.562763 L 12.35875 10.562763 L 12.35875 11.560534 L 9.360903 11.560534 Z M 9.360903 10.562763 " transform="matrix(0.861295,0,0,0.861295,0,0)"/>
<path style="fill:none;stroke-width:1;stroke-linecap:round;stroke-linejoin:round;stroke:rgb(47.45098%,47.45098%,47.45098%);stroke-opacity:1;stroke-miterlimit:4;" d="M 14.363362 10.562763 L 17.36121 10.562763 L 17.36121 11.560534 L 14.363362 11.560534 Z M 14.363362 10.562763 " transform="matrix(0.861295,0,0,0.861295,0,0)"/>
<path style="fill:none;stroke-width:1;stroke-linecap:round;stroke-linejoin:round;stroke:rgb(47.45098%,47.45098%,47.45098%);stroke-opacity:1;stroke-miterlimit:4;" d="M 9.360903 13.565146 L 12.35875 13.565146 L 12.35875 14.567452 L 9.360903 14.567452 Z M 9.360903 13.565146 " transform="matrix(0.861295,0,0,0.861295,0,0)"/>
<path style="fill:none;stroke-width:1;stroke-linecap:round;stroke-linejoin:round;stroke:rgb(47.45098%,47.45098%,47.45098%);stroke-opacity:1;stroke-miterlimit:4;" d="M 14.363362 13.565146 L 17.36121 13.565146 L 17.36121 14.567452 L 14.363362 14.567452 Z M 14.363362 13.565146 " transform="matrix(0.861295,0,0,0.861295,0,0)"/>
<path style="fill:none;stroke-width:1;stroke-linecap:round;stroke-linejoin:round;stroke:rgb(47.45098%,47.45098%,47.45098%);stroke-opacity:1;stroke-miterlimit:4;" d="M 2.680375 6.086401 L 6.680528 13.152432 " transform="matrix(0.861295,0,0,0.861295,0,0)"/>
<path style="fill:none;stroke-width:1;stroke-linecap:round;stroke-linejoin:round;stroke:rgb(47.45098%,47.45098%,47.45098%);stroke-opacity:1;stroke-miterlimit:4;" d="M 2.680375 13.052655 L 6.9209 5.936736 " transform="matrix(0.861295,0,0,0.861295,0,0)"/>
</g>
</svg>
